G75*
%MOIN*%
%OFA0B0*%
%FSLAX25Y25*%
%IPPOS*%
%LPD*%
%AMOC8*
5,1,8,0,0,1.08239X$1,22.5*
%
%ADD10C,0.08200*%
%ADD11C,0.06000*%
%ADD12OC8,0.06800*%
%ADD13R,0.08200X0.08200*%
%ADD14OC8,0.08200*%
%ADD15C,0.11036*%
%ADD16OC8,0.07400*%
%ADD17C,0.13800*%
%ADD18C,0.04800*%
D10*
X0121800Y0036800D03*
X0131800Y0036800D03*
X0161800Y0036800D03*
X0171800Y0036800D03*
D11*
X0116800Y0074200D02*
X0116800Y0079400D01*
X0106800Y0079400D02*
X0106800Y0074200D01*
X0096800Y0074200D02*
X0096800Y0079400D01*
X0086800Y0079400D02*
X0086800Y0074200D01*
X0076800Y0074200D02*
X0076800Y0079400D01*
X0066800Y0079400D02*
X0066800Y0074200D01*
X0056800Y0074200D02*
X0056800Y0079400D01*
X0046800Y0079400D02*
X0046800Y0074200D01*
X0046800Y0104200D02*
X0046800Y0109400D01*
X0056800Y0109400D02*
X0056800Y0104200D01*
X0066800Y0104200D02*
X0066800Y0109400D01*
X0076800Y0109400D02*
X0076800Y0104200D01*
X0086800Y0104200D02*
X0086800Y0109400D01*
X0096800Y0109400D02*
X0096800Y0104200D01*
X0106800Y0104200D02*
X0106800Y0109400D01*
X0116800Y0109400D02*
X0116800Y0104200D01*
X0239200Y0041800D02*
X0244400Y0041800D01*
X0244400Y0031800D02*
X0239200Y0031800D01*
X0269200Y0031800D02*
X0274400Y0031800D01*
X0274400Y0041800D02*
X0269200Y0041800D01*
D12*
X0231800Y0131800D03*
X0221800Y0131800D03*
X0211800Y0131800D03*
X0201800Y0131800D03*
X0191800Y0131800D03*
X0181800Y0131800D03*
X0171800Y0131800D03*
X0161800Y0131800D03*
X0151800Y0131800D03*
X0141800Y0131800D03*
X0131800Y0131800D03*
X0121800Y0131800D03*
X0111800Y0131800D03*
X0101800Y0131800D03*
X0091800Y0131800D03*
X0081800Y0131800D03*
X0071800Y0131800D03*
X0061800Y0131800D03*
X0051800Y0131800D03*
X0041800Y0131800D03*
X0041800Y0141800D03*
X0051800Y0141800D03*
X0061800Y0141800D03*
X0071800Y0141800D03*
X0081800Y0141800D03*
X0091800Y0141800D03*
X0101800Y0141800D03*
X0111800Y0141800D03*
X0121800Y0141800D03*
X0131800Y0141800D03*
X0141800Y0141800D03*
X0151800Y0141800D03*
X0161800Y0141800D03*
X0171800Y0141800D03*
X0181800Y0141800D03*
X0191800Y0141800D03*
X0201800Y0141800D03*
X0211800Y0141800D03*
X0221800Y0141800D03*
X0231800Y0141800D03*
D13*
X0041800Y0031800D03*
D14*
X0051800Y0031800D03*
X0061800Y0031800D03*
X0061800Y0041800D03*
X0051800Y0041800D03*
X0041800Y0041800D03*
D15*
X0256682Y0071800D02*
X0266918Y0071800D01*
X0266918Y0091800D02*
X0256682Y0091800D01*
X0256682Y0111800D02*
X0266918Y0111800D01*
X0266918Y0131800D02*
X0256682Y0131800D01*
D16*
X0221800Y0111800D03*
X0201800Y0111800D03*
X0181800Y0111800D03*
X0161800Y0111800D03*
X0141800Y0111800D03*
X0141800Y0071800D03*
X0161800Y0071800D03*
X0181800Y0071800D03*
X0201800Y0071800D03*
X0221800Y0071800D03*
D17*
X0021800Y0031800D03*
X0286800Y0151800D03*
D18*
X0106800Y0091800D03*
M02*
