%
M48
M72
T01C0.02400
T02C0.03200
T03C0.04000
T04C0.06299
T05C0.13000
%
T01
X106800Y91800
T02
X106800Y76800
X96800Y76800
X86800Y76800
X76800Y76800
X66800Y76800
X56800Y76800
X46800Y76800
X46800Y106800
X56800Y106800
X66800Y106800
X76800Y106800
X86800Y106800
X96800Y106800
X106800Y106800
X116800Y106800
X141800Y111800
X161800Y111800
X181800Y111800
X201800Y111800
X221800Y111800
X221800Y71800
X201800Y71800
X181800Y71800
X161800Y71800
X141800Y71800
X116800Y76800
X241800Y41800
X241800Y31800
X271800Y31800
X271800Y41800
T03
X171800Y36800
X161800Y36800
X131800Y36800
X121800Y36800
X61800Y31800
X51800Y31800
X41800Y31800
X41800Y41800
X51800Y41800
X61800Y41800
X61800Y131800
X51800Y131800
X41800Y131800
X41800Y141800
X51800Y141800
X61800Y141800
X71800Y141800
X81800Y141800
X91800Y141800
X101800Y141800
X111800Y141800
X121800Y141800
X131800Y141800
X141800Y141800
X151800Y141800
X161800Y141800
X171800Y141800
X181800Y141800
X191800Y141800
X201800Y141800
X211800Y141800
X221800Y141800
X231800Y141800
X231800Y131800
X221800Y131800
X211800Y131800
X201800Y131800
X191800Y131800
X181800Y131800
X171800Y131800
X161800Y131800
X151800Y131800
X141800Y131800
X131800Y131800
X121800Y131800
X111800Y131800
X101800Y131800
X91800Y131800
X81800Y131800
X71800Y131800
T04
X261800Y131800
X261800Y111800
X261800Y91800
X261800Y71800
T05
X21800Y31800
X286800Y151800
M30
